<svg width="20" height="20" viewBox="0 0 20 20" fill="none" xmlns="http://www.w3.org/2000/svg">
<path d="M13.1053 10L8.86842 5.76316L8.05263 6.63158L11.4211 10L8.05263 13.3684L8.86842 14.2368L13.1053 10ZM20 10C20 11.3684 19.7368 12.6623 19.2105 13.8816C18.6842 15.1009 17.9693 16.1623 17.0658 17.0658C16.1623 17.9693 15.1009 18.6842 13.8816 19.2105C12.6623 19.7368 11.3684 20 10 20C8.61404 20 7.3114 19.7368 6.09211 19.2105C4.87281 18.6842 3.81579 17.9693 2.92105 17.0658C2.02632 16.1623 1.31579 15.1009 0.789474 13.8816C0.263158 12.6623 0 11.3684 0 10C0 8.61403 0.263158 7.3114 0.789474 6.0921C1.31579 4.87281 2.02632 3.81579 2.92105 2.92105C3.81579 2.02631 4.87281 1.31579 6.09211 0.789473C7.3114 0.263157 8.61404 0 10 0C11.3684 0 12.6623 0.263157 13.8816 0.789473C15.1009 1.31579 16.1623 2.02631 17.0658 2.92105C17.9693 3.81579 18.6842 4.87281 19.2105 6.0921C19.7368 7.3114 20 8.61403 20 10ZM18.8158 10C18.8158 7.54386 17.9561 5.46053 16.2368 3.75C14.5175 2.03947 12.4386 1.18421 10 1.18421C7.54386 1.18421 5.46053 2.03947 3.75 3.75C2.03947 5.46053 1.18421 7.54386 1.18421 10C1.18421 12.4386 2.03947 14.5175 3.75 16.2368C5.46053 17.9561 7.54386 18.8158 10 18.8158C12.4386 18.8158 14.5175 17.9561 16.2368 16.2368C17.9561 14.5175 18.8158 12.4386 18.8158 10Z" fill="#F3FBF7"/>
</svg>
