<svg width="45" height="40" viewBox="0 0 45 40" fill="none" xmlns="http://www.w3.org/2000/svg">
<path opacity="0.4" d="M11.3736 0L16.1951 3.45644C15.3709 4.5263 14.3819 6.17223 13.228 8.39423C12.0742 10.5339 11.0852 12.9205 10.261 15.554C9.43681 18.1052 9.06594 20.5741 9.14835 22.9607C9.72528 22.7961 10.1786 22.7138 10.5082 22.7138C10.9203 22.6315 11.3324 22.5903 11.7445 22.5903C13.9698 22.5903 15.9478 23.2487 17.6786 24.5655C19.4093 25.7999 20.2747 27.8573 20.2747 30.7377C20.2747 33.2066 19.4506 35.3874 17.8022 37.2802C16.2363 39.0908 14.0934 39.996 11.3736 39.996C7.58242 40.0783 4.73901 38.885 2.84341 36.4161C0.947802 33.8649 0 30.7377 0 27.0343C0 24.4009 0.412088 21.6028 1.23626 18.6401C2.06044 15.6775 3.2967 12.6325 4.94506 9.50523C6.67583 6.29567 8.81868 3.12726 11.3736 0ZM36.0989 0L40.9203 3.45644C40.0962 4.5263 39.1071 6.17223 37.9533 8.39423C36.7994 10.5339 35.8104 12.9205 34.9863 15.554C34.1621 18.1052 33.7912 20.5741 33.8736 22.9607C34.4506 22.7961 34.9039 22.7138 35.2335 22.7138C35.6456 22.6315 36.0577 22.5903 36.4698 22.5903C38.6951 22.5903 40.6731 23.2487 42.4038 24.5655C44.1346 25.7999 45 27.8573 45 30.7377C45 33.2066 44.1758 35.3874 42.5275 37.2802C40.9615 39.0908 38.8187 39.996 36.0989 39.996C32.3077 40.0783 29.4643 38.885 27.5687 36.4161C25.6731 33.8649 24.7253 30.7377 24.7253 27.0343C24.7253 24.4009 25.1374 21.6028 25.9615 18.6401C26.7857 15.6775 28.022 12.6325 29.6703 9.50523C31.4011 6.29567 33.544 3.12726 36.0989 0Z" fill="#414E8E"/>
</svg>
