<svg width="14" height="14" viewBox="0 0 14 14" fill="none" xmlns="http://www.w3.org/2000/svg">
<path d="M6.01634 8.51683L4.38301 6.8835C4.28301 6.7835 4.16079 6.7335 4.01634 6.7335C3.8719 6.7335 3.74967 6.7835 3.64967 6.8835C3.53856 6.99461 3.48301 7.12516 3.48301 7.27516C3.48301 7.42516 3.53301 7.55016 3.63301 7.65016L5.66634 9.6835C5.75523 9.77238 5.8719 9.81683 6.01634 9.81683C6.16079 9.81683 6.27745 9.77238 6.36634 9.6835L10.3663 5.6835C10.4663 5.5835 10.5163 5.46127 10.5163 5.31683C10.5163 5.17238 10.4608 5.04461 10.3497 4.9335C10.2497 4.8335 10.1247 4.7835 9.97467 4.7835C9.82467 4.7835 9.69412 4.83905 9.58301 4.95016L6.01634 8.51683ZM6.99967 13.6668C6.05523 13.6668 5.17745 13.4974 4.36634 13.1585C3.55523 12.8196 2.84967 12.3502 2.24967 11.7502C1.64967 11.1502 1.18023 10.4446 0.841341 9.6335C0.502452 8.82238 0.333008 7.94461 0.333008 7.00016C0.333008 6.06683 0.502452 5.19461 0.841341 4.3835C1.18023 3.57238 1.64967 2.86683 2.24967 2.26683C2.84967 1.66683 3.55523 1.19461 4.36634 0.850163C5.17745 0.505718 6.05523 0.333496 6.99967 0.333496C7.93301 0.333496 8.80523 0.505718 9.61634 0.850163C10.4275 1.19461 11.133 1.66683 11.733 2.26683C12.333 2.86683 12.8052 3.57238 13.1497 4.3835C13.4941 5.19461 13.6663 6.06683 13.6663 7.00016C13.6663 7.94461 13.4941 8.82238 13.1497 9.6335C12.8052 10.4446 12.333 11.1502 11.733 11.7502C11.133 12.3502 10.4275 12.8196 9.61634 13.1585C8.80523 13.4974 7.93301 13.6668 6.99967 13.6668Z" fill="#3AB574"/>
</svg>
