<svg width="20" height="22" viewBox="0 0 20 22" fill="none" xmlns="http://www.w3.org/2000/svg">
<path d="M20.0003 11.2444C20.0003 10.5555 19.9336 9.84441 19.8225 9.17773H10.2002V13.1111H15.7114C15.4891 14.3778 14.7558 15.4889 13.6669 16.2L16.9558 18.7556C18.8892 16.9556 20.0003 14.3333 20.0003 11.2444Z" fill="#4280EF"/>
<path d="M10.2001 21.2001C12.9557 21.2001 15.2668 20.289 16.9557 18.7334L13.6668 16.2C12.7557 16.8223 11.5779 17.1778 10.2001 17.1778C7.53338 17.1778 5.28891 15.3778 4.46668 12.9778L1.08887 15.5778C2.82222 19.0223 6.33337 21.2001 10.2001 21.2001Z" fill="#34A353"/>
<path d="M4.46702 12.9555C4.04479 11.6888 4.04479 10.311 4.46702 9.04437L1.0892 6.42212C-0.355256 9.31104 -0.355256 12.7111 1.0892 15.5778L4.46702 12.9555Z" fill="#F6B704"/>
<path d="M10.2001 4.84444C11.6445 4.82221 13.0668 5.37778 14.1112 6.37779L17.0224 3.44442C15.1779 1.71107 12.7334 0.777726 10.2001 0.799948C6.33337 0.799948 2.82222 2.97775 1.08887 6.42223L4.46668 9.04448C5.28891 6.62223 7.53338 4.84444 10.2001 4.84444Z" fill="#E54335"/>
</svg>
