<svg width="20" height="21" viewBox="0 0 20 21" fill="none" xmlns="http://www.w3.org/2000/svg">
<path d="M9.89079 17.9836L9.05445 17.2284C7.61297 15.9086 6.42307 14.769 5.48474 13.8097C4.54642 12.8504 3.79848 11.9932 3.24092 11.238C2.68337 10.4829 2.2924 9.79912 2.06802 9.18682C1.84364 8.57451 1.73145 7.9554 1.73145 7.32949C1.73145 6.10488 2.14281 5.08097 2.96555 4.25776C3.78828 3.43455 4.8048 3.02295 6.0151 3.02295C6.79024 3.02295 7.50758 3.20664 8.16713 3.57402C8.82667 3.94141 9.40123 4.47207 9.89079 5.16602C10.4619 4.43125 11.0671 3.89038 11.7062 3.54341C12.3454 3.19644 13.0321 3.02295 13.7665 3.02295C14.9768 3.02295 15.9933 3.43455 16.816 4.25776C17.6388 5.08097 18.0501 6.10488 18.0501 7.32949C18.0501 7.9554 17.9379 8.57451 17.7136 9.18682C17.4892 9.79912 17.0982 10.4829 16.5406 11.238C15.9831 11.9932 15.2352 12.8504 14.2968 13.8097C13.3585 14.769 12.1686 15.9086 10.7271 17.2284L9.89079 17.9836ZM9.89079 16.3712C11.2643 15.1058 12.3964 14.0206 13.2871 13.1158C14.1778 12.2109 14.885 11.4183 15.4085 10.738C15.9321 10.0577 16.2993 9.45215 16.5101 8.92148C16.7208 8.39082 16.8262 7.86016 16.8262 7.32949C16.8262 6.43145 16.5406 5.69328 15.9695 5.11499C15.3983 4.5367 14.664 4.24756 13.7665 4.24756C13.0729 4.24756 12.427 4.46187 11.8286 4.89048C11.2303 5.31909 10.7475 5.92119 10.3803 6.69678H9.38083C9.02726 5.9348 8.55129 5.3361 7.95294 4.90068C7.35459 4.46527 6.70864 4.24756 6.0151 4.24756C5.11757 4.24756 4.38323 4.5367 3.81208 5.11499C3.24092 5.69328 2.95535 6.43145 2.95535 7.32949C2.95535 7.86016 3.06074 8.39422 3.27152 8.93169C3.4823 9.46916 3.84947 10.0815 4.37303 10.7686C4.89659 11.4557 5.60713 12.2483 6.50466 13.1464C7.40219 14.0444 8.5309 15.1194 9.89079 16.3712Z" fill="#3AB574"/>
</svg>
