<svg width="121" height="121" viewBox="0 0 121 121" fill="none" xmlns="http://www.w3.org/2000/svg">
<path d="M113.041 7.65614L119.697 1.00009M99.0355 7.65614L105.692 1.00009M85.0305 7.65614L91.6865 1.00009M71.0254 7.65614L77.6814 1.00009M57.0203 7.65614L63.6764 1.00009M43.0152 7.65614L49.6713 1.00009M29.0102 7.65614L35.6662 1.00009M15.0051 7.65614L21.6611 1.00009M1 7.65605L7.65605 1M113.041 21.6612L119.697 15.0052M99.0355 21.6612L105.692 15.0052M85.0305 21.6612L91.6865 15.0052M71.0254 21.6612L77.6814 15.0052M57.0203 21.6612L63.6764 15.0052M43.0152 21.6612L49.6713 15.0052M29.0102 21.6612L35.6662 15.0052M15.0051 21.6612L21.6611 15.0052M1 21.6612L7.65605 15.0052M113.041 35.6663L119.697 29.0102M99.0355 35.6663L105.692 29.0102M85.0305 35.6663L91.6865 29.0102M71.0254 35.6663L77.6814 29.0102M57.0203 35.6663L63.6764 29.0102M43.0152 35.6663L49.6713 29.0102M29.0102 35.6663L35.6662 29.0102M15.0051 35.6663L21.6611 29.0102M1 35.6663L7.65605 29.0102M113.041 49.6714L119.697 43.0153M99.0355 49.6714L105.692 43.0153M85.0305 49.6714L91.6865 43.0153M71.0254 49.6714L77.6814 43.0153M57.0203 49.6714L63.6764 43.0153M43.0152 49.6714L49.6713 43.0153M29.0102 49.6714L35.6662 43.0153M15.0051 49.6714L21.6611 43.0153M1 49.6714L7.65605 43.0153M113.041 63.6765L119.697 57.0204M99.0355 63.6765L105.692 57.0204M85.0305 63.6765L91.6865 57.0204M71.0254 63.6765L77.6814 57.0204M57.0203 63.6765L63.6764 57.0204M43.0152 63.6765L49.6713 57.0204M29.0102 63.6765L35.6662 57.0204M15.0051 63.6765L21.6611 57.0204M1 63.6765L7.65605 57.0204M113.041 77.6815L119.697 71.0255M99.0355 77.6815L105.692 71.0255M85.0305 77.6815L91.6865 71.0255M71.0254 77.6815L77.6814 71.0255M57.0203 77.6815L63.6764 71.0255M43.0152 77.6815L49.6713 71.0255M29.0102 77.6815L35.6662 71.0255M15.0051 77.6815L21.6611 71.0255M1 77.6815L7.65605 71.0255M113.041 91.6866L119.697 85.0306M99.0355 91.6866L105.692 85.0306M85.0305 91.6866L91.6865 85.0306M71.0254 91.6866L77.6814 85.0306M57.0203 91.6866L63.6764 85.0306M43.0152 91.6866L49.6713 85.0306M29.0102 91.6866L35.6662 85.0306M15.0051 91.6866L21.6611 85.0306M1 91.6866L7.65605 85.0306M113.041 105.692L119.697 99.0356M99.0355 105.692L105.692 99.0356M85.0305 105.692L91.6865 99.0356M71.0254 105.692L77.6814 99.0356M57.0203 105.692L63.6764 99.0356M43.0152 105.692L49.6713 99.0356M29.0102 105.692L35.6662 99.0356M15.0051 105.692L21.6611 99.0356M1 105.692L7.65605 99.0356M113.041 119.697L119.697 113.041M99.0355 119.697L105.692 113.041M85.0305 119.697L91.6865 113.041M71.0254 119.697L77.6814 113.041M57.0203 119.697L63.6764 113.041M43.0152 119.697L49.6713 113.041M29.0102 119.697L35.6662 113.041M15.0051 119.697L21.6611 113.041M1 119.697L7.65605 113.041" stroke="#3AB574" stroke-width="0.844022" stroke-linecap="round"/>
</svg>
