<svg width="19" height="14" viewBox="0 0 19 14" fill="none" xmlns="http://www.w3.org/2000/svg">
<path d="M12.0622 13.2082C11.9511 13.0971 11.8955 12.9512 11.8955 12.7707C11.8955 12.5901 11.9511 12.4443 12.0622 12.3332L16.7705 7.62484H1.45801C1.27745 7.62484 1.12815 7.56581 1.01009 7.44775C0.892036 7.3297 0.833008 7.18039 0.833008 6.99984C0.833008 6.81928 0.892036 6.66998 1.01009 6.55192C1.12815 6.43386 1.27745 6.37484 1.45801 6.37484H16.7705L12.0622 1.6665C11.9511 1.55539 11.8955 1.40609 11.8955 1.21859C11.8955 1.03109 11.9511 0.881782 12.0622 0.770671C12.1733 0.65956 12.3191 0.604004 12.4997 0.604004C12.6802 0.604004 12.8261 0.65956 12.9372 0.770671L18.7288 6.56234C18.7983 6.63178 18.8469 6.70123 18.8747 6.77067C18.9025 6.84012 18.9163 6.9165 18.9163 6.99984C18.9163 7.06928 18.9025 7.1422 18.8747 7.21859C18.8469 7.29498 18.7983 7.36789 18.7288 7.43734L12.9372 13.229C12.8261 13.3401 12.6802 13.3922 12.4997 13.3853C12.3191 13.3783 12.1733 13.3193 12.0622 13.2082Z" fill="white"/>
</svg>
