<svg width="18" height="18" viewBox="0 0 18 18" fill="none" xmlns="http://www.w3.org/2000/svg">
<path d="M9 14.4663L14.562 18L13.086 11.34L18 6.85895L11.529 6.28105L9 0L6.471 6.28105L0 6.85895L4.914 11.34L3.438 18L9 14.4663Z" fill="#FFCF00"/>
<path d="M8.758 4.92192L7.60553 7.02897C7.54397 7.14153 7.43203 7.21761 7.30472 7.23345L4.98783 7.52162C4.93915 7.52767 4.94221 7.59921 4.99123 7.60109L7.23524 7.68692C7.23718 7.687 7.23917 7.68722 7.24108 7.68757C7.75377 7.78137 7.99138 7.40735 8.04613 7.20823L8.83069 4.95419C8.84679 4.90794 8.7815 4.87896 8.758 4.92192Z" fill="#FFDF55"/>
<mask id="mask0_190_690" style="mask-type:alpha" maskUnits="userSpaceOnUse" x="0" y="0" width="18" height="18">
<path d="M9 14.4663L14.562 18L13.086 11.34L18 6.85895L11.529 6.28105L9 0L6.471 6.28105L0 6.85895L4.914 11.34L3.438 18L9 14.4663Z" fill="#FFCF00"/>
</mask>
<g mask="url(#mask0_190_690)">
<path d="M16.7591 3.75C13.1658 12.3354 3.08915 16.0952 -1.5 16.9019L3.2309 22.5L22.5 14.0906L16.7591 3.75Z" fill="#FFBF0E"/>
</g>
</svg>
